<svg xmlns="http://www.w3.org/2000/svg" xmlns:xlink="http://www.w3.org/1999/xlink" width="240" height="480">
    <defs>
        <symbol id="menu"><path d="M4 6.143C4 5.512 4.512 5 5.143 5h13.714a1.143 1.143 0 1 1 0 2.286H5.143A1.143 1.143 0 0 1 4 6.143zM4 11.857c0-.631.512-1.143 1.143-1.143h13.714a1.143 1.143 0 1 1 0 2.286H5.143A1.143 1.143 0 0 1 4 11.857zM4 17.571c0-.63.512-1.142 1.143-1.142h13.714a1.143 1.143 0 1 1 0 2.285H5.143A1.143 1.143 0 0 1 4 17.571z"/></symbol>
        <symbol id="search"><path fill-rule="evenodd" clip-rule="evenodd" d="M11.055 4.9A6.147 6.147 0 0 0 4.9 11.059a6.153 6.153 0 0 0 6.155 6.159 6.133 6.133 0 0 0 4.395-1.842 6.141 6.141 0 0 0 1.76-4.317A6.147 6.147 0 0 0 11.054 4.9zm6.232 11.112a7.933 7.933 0 0 0 1.722-4.953A7.947 7.947 0 0 0 11.055 3.1 7.947 7.947 0 0 0 3.1 11.059a7.953 7.953 0 0 0 7.955 7.959 7.923 7.923 0 0 0 4.96-1.732l3.348 3.35a.9.9 0 0 0 1.274-1.272l-3.35-3.352z"/></symbol>
        <symbol id="close"><path d="M15 15L5 5M15 5L5 15" stroke-width="1.8" stroke-linecap="round" stroke-linejoin="round"/></symbol>
        <symbol id="icon_home"><path d="M19.57 10.342l-.585-.45c-1.444-1.074-3.395-2.563-5.853-4.433l-.234-.173c-.508-.381-1.288-.381-1.796  0l-2.77 2.112a2313.334 2313.334 0 0 1-3.864 2.91c-.312.207-.468.519-.468.865v.07c.039.623.624 1.073 1.288 1.073h.858v5.818c0 .485.43.866.976.866h3.005c.507-.035.897-.416.897-.866v-3.013c0-.208.156-.346.39-.346h1.171c.234 0 .39.138.39.346v3.013c0 .485.43.866.976.866h3.005c.507-.035.898-.416.898-.866v-5.818h.858c.703 0 1.288-.52 1.288-1.143 0-.346-.156-.623-.43-.831z"/></symbol>
        <symbol id="icon_game"><path d="M19.48 8.105c-2.246-3.9-5.629-1.187-5.629-1.187-.219.175-.624.32-.899.32h-.904a1.68 1.68 0 0 1-.899-.318S7.766 4.208 5.521 8.106c-2.245 3.897-1.34 8.14-1.34 8.14.157 1.04.68 1.734 1.666 1.646.983-.085 3.117-2.797 3.117-2.797.176-.223.546-.406.82-.406l5.43-.001c.275 0 .645.183.821.406 0 0 2.133 2.712 3.119 2.798.984.088 1.508-.606 1.666-1.645 0 0 .905-4.243-1.34-8.141v-.001zm-9.021 3.173H9.294v1.186s-.246.2-.629.194c-.38-.006-.552-.217-.552-.217V11.28H7.011s-.137-.15-.174-.541c-.036-.392.152-.708.152-.708h1.165V8.8s.24-.137.585-.127c.345.012.597.15.597.15l-.005 1.206h1.1s.192.261.208.576c.016.315-.18.673-.18.673zm5.342 1.351c-.51 0-.921-.435-.921-.973 0-.54.411-.974.921-.974.508 0 .922.434.922.974 0 .538-.414.974-.922.974zm0-2.68c-.51 0-.921-.435-.921-.973 0-.54.411-.975.921-.975.508 0 .922.435.922.975 0 .538-.414.973-.922.973zm2.295 1.44c-.51 0-.92-.436-.92-.975 0-.539.411-.974.921-.974.508 0 .922.435.922.974 0 .54-.414.974-.922.974z" /></symbol>
        <symbol id="icon_app"><path fill-rule="evenodd" clip-rule="evenodd" d="M16.951 7.499A7.986 7.986 0 0 1 20 13.783H4a7.986 7.986 0 0 1 3.049-6.284L5.758 6.207a.6.6 0 0 1 .848-.848l1.458 1.458A7.964 7.964 0 0 1 12 5.783c1.43 0 2.774.376 3.936 1.034l1.62-1.62a.6.6 0 0 1 .848.848L16.951 7.5zM9 10.449a1 1 0 1 0 0-2 1 1 0 0 0 0 2zm6.333-1a1 1 0 1 1-2 0 1 1 0 0 1 2 0zm4.667 9v-4.333H4v4.334a1 1 0 0 0 1 1h14a1 1 0 0 0 1-1z" /></symbol>
        <symbol id="icon_article"><path d="M18.112 7.928v8.784c0 .336-.232.648-.568.704a.678.678 0 0 1-.792-.672V5.888c0-.744-.608-1.36-1.36-1.36H5.888c-.744 0-1.36.608-1.36 1.36v11.536c0 1.12.92 2.04 2.04 2.04h10.864c1.128 0 2.04-.912 2.04-2.04V9.288a1.37 1.37 0 0 0-1.36-1.36zm-4.072 7.808H7.248a.68.68 0 1 1 0-1.36h6.784a.68.68 0 0 1 .008 1.36zm0-3.4H7.248a.68.68 0 1 1 0-1.36h6.784a.68.68 0 0 1 .008 1.36zm0-3.392H7.248a.68.68 0 1 1 0-1.36h6.784a.68.68 0 0 1 .008 1.36z" /></symbol>
        <symbol id="icon_topics"><path fill-rule="evenodd" clip-rule="evenodd" d="M20 6H9.573l.87 2.306H20V6zm0 5.113h-6.517l-.434 1.153.434 1.153H20v-2.306zm-9.558 5.114H20v2.306H9.573l.869-2.306zm-.361-5.963l-2.187-3.24-.136 3.907L4 12.008l3.674 1.337-.137 3.907 2.407-3.08 3.674 1.337-2.186-3.241 2.407-3.081-3.758 1.078z" /></symbol>
        <symbol id="icon_product"><path d="M4 7.2L12 4l8 3.2-8 3.84L4 7.2zM4 8.48l7.385 3.84V20L4 16.16V8.48zM12.615 12.32L20 8.48v7.68L12.615 20v-7.68z" /></symbol>
        <symbol id="icon_tv"><rect width="24" height="24" fill="white"/><path fill-rule="evenodd" clip-rule="evenodd" d="M10.6872 7.1843L13.0641 5.13539C13.3192 4.91548 13.6701 4.96912 13.8479 5.25521C14.0257 5.5413 13.963 5.95149 13.7079 6.17141L12.0529 7.59797C12.0772 7.60753 12.1007 7.61852 12.1236 7.63083L15.6339 6.88467C17.0169 6.59072 18.3763 7.47352 18.6703 8.85647L19.2444 11.5576C19.0003 11.878 18.6431 12.3346 18.2286 12.8301C17.8519 13.2804 17.4317 13.7583 17.0086 14.1938L16.1443 10.1276C15.9238 9.09042 14.9043 8.42831 13.8671 8.64878L6.33072 10.2507C5.29351 10.4711 4.6314 11.4907 4.85187 12.5279L5.7478 16.743C5.96827 17.7802 6.98782 18.4423 8.02503 18.2218L8.85929 18.0445C8.9328 18.2894 9.13093 18.45 9.31067 18.5445C9.53772 18.6638 9.79898 18.7153 9.96105 18.7153C10.0619 18.7153 10.1778 18.6872 10.284 18.6502C10.3945 18.6117 10.5136 18.5568 10.6245 18.4893C10.7343 18.4225 10.845 18.3379 10.931 18.2366C11.0159 18.1366 11.0924 18.001 11.0924 17.8386V17.5698L14.1808 16.9133C14.2087 16.9769 14.2306 17.0249 14.2454 17.0546C14.2514 17.0666 14.2579 17.0799 14.265 17.0944C14.3461 17.2607 14.5033 17.5828 14.806 17.7594C15.1708 17.9722 15.655 17.9379 16.2876 17.5312C16.9134 17.1289 17.4948 16.5115 17.9801 15.9409C18.1749 15.7118 18.3573 15.4865 18.5217 15.2834C18.563 15.2324 18.6031 15.1828 18.642 15.135C18.8392 14.8924 19.0012 14.698 19.1288 14.5704C19.3728 14.3264 19.5645 14.054 19.715 13.7716L19.8648 14.4765C20.1588 15.8595 19.276 17.2189 17.893 17.5128L8.28742 19.5546C6.90447 19.8485 5.54506 18.9657 5.25111 17.5828L4.05653 11.9627C3.76257 10.5798 4.64538 9.22036 6.02833 8.92641L9.7009 8.14578L8.3945 7.75231C8.07198 7.65517 7.84786 7.30594 7.8939 6.97228C7.93995 6.63861 8.23873 6.44687 8.56124 6.54401L10.6872 7.1843ZM19.31 11.8664L19.6334 13.3879C19.4781 13.7474 19.2614 14.0984 18.9591 14.4007C18.7934 14.5664 18.5818 14.8277 18.3346 15.1331C17.7586 15.8445 16.9893 16.7948 16.1578 17.3293C15.0122 18.0658 14.6554 17.3429 14.4791 16.9857L14.4701 16.9675L14.4645 16.9561L14.4601 16.9473C14.4503 16.9277 14.437 16.8991 14.4206 16.8624L15.5614 16.6199C16.5529 16.4092 17.2016 15.4682 17.0643 14.4797C17.9344 13.6014 18.7967 12.5319 19.31 11.8664ZM10.8524 17.6208L9.09577 17.9942C9.21854 18.3438 9.74268 18.4753 9.96105 18.4753C10.2092 18.4753 10.8524 18.1782 10.8524 17.8386V17.6208Z"/><path d="M15.309 10.2836C15.4363 10.2836 15.4787 10.3261 15.4787 10.4534C15.4787 10.5807 15.1582 11.7502 15.0967 11.8116C15.0353 11.873 14.7572 11.8965 14.545 11.9814C14.4389 12.0238 14.4176 12.0663 14.4176 12.1511C14.4176 12.3262 15.5636 15.0798 15.6485 15.2071C15.7334 15.3344 15.8607 15.5042 16.073 15.3769C17.6009 14.1884 19.5533 11.5569 19.7656 11.2598C19.9778 10.9627 20.0202 11.1749 20.0202 11.3023C20.0202 11.9389 19.9353 13.4245 18.9591 14.4007C18.4074 14.9524 17.3463 16.5653 16.1578 17.3293C14.9694 18.0933 14.6299 17.2868 14.4601 16.9473C14.2903 16.6077 13.0582 13.5269 12.7199 12.5331C12.7199 12.5331 12.6774 12.4058 12.5501 12.4483C12.397 12.4891 11.0423 12.8235 11.0221 12.8303C10.8948 12.8727 10.8524 12.9576 10.8524 13C10.8524 13.0425 10.8524 17.8386 10.8524 17.8386C10.8524 18.1782 10.2092 18.4753 9.96105 18.4753C9.71287 18.4753 9.06973 18.3055 9.06973 17.8386V13.3396C9.06973 13.2939 9.02728 13.2122 8.89995 13.2547C8.77262 13.2971 7.03242 13.6791 7.03242 13.6791C6.90509 13.6791 6.86265 13.5942 6.86265 13.5093C6.86265 13.3396 7.49931 12.0663 7.49931 12.0663C7.49931 12.0663 7.5842 11.9389 7.66908 11.8965C7.75397 11.854 15.1816 10.2836 15.309 10.2836Z"/></symbol>
        <symbol id="icon_world"><path d="M12 4c-4.43 0-8 3.57-8 8s3.57 8 8 8 8-3.57 8-8-3.57-8-8-8zm-6.708 8.615h2.462c.061.862.123 1.723.308 2.462H5.969a6.658 6.658 0 0 1-.677-2.462zm7.323-4.923V5.415c.616.308 1.231 1.17 1.723 2.277h-1.723zm2.093 1.231c.184.739.307 1.6.369 2.462h-2.462V8.923h2.093zm-3.323-3.508v2.277H9.662c.492-1.169 1.107-1.969 1.723-2.277zm0 3.508v2.462H8.923c.062-.862.185-1.723.37-2.462h2.092zm-3.693 2.462H5.231a5.732 5.732 0 0 1 .738-2.462H8c-.123.739-.246 1.6-.308 2.462zm1.231 1.23h2.462v2.462H9.292c-.184-.739-.307-1.6-.369-2.462zm2.462 3.693v2.277c-.616-.308-1.231-1.17-1.723-2.277h1.723zm1.23 2.277v-2.277h1.723c-.492 1.169-1.107 1.969-1.723 2.277zm0-3.508v-2.462h2.462a14.763 14.763 0 0 1-.37 2.462h-2.092zm3.693-2.462h2.461a5.732 5.732 0 0 1-.738 2.462H16c.123-.739.246-1.6.308-2.462zm0-1.23c-.062-.862-.123-1.723-.308-2.462h2.03c.37.739.616 1.6.74 2.462h-2.462zm.923-3.693h-1.6a7.856 7.856 0 0 0-.923-1.907 7.037 7.037 0 0 1 2.523 1.907zM9.292 5.785a7.853 7.853 0 0 0-.923 1.907h-1.6a7.036 7.036 0 0 1 2.523-1.907zM6.77 16.308h1.6c.246.738.554 1.354.923 1.907a7.037 7.037 0 0 1-2.523-1.907zm7.939 1.907c.369-.553.677-1.169.923-1.907h1.6a7.038 7.038 0 0 1-2.523 1.907z" /></symbol>
        <symbol id="f_icon_facebook"><path d="M16.8163 4.11538V6.65385H15.2143C14.6293 6.65385 14.2347 6.76923 14.0306 7C13.8265 7.23077 13.7245 7.57692 13.7245 8.03846V9.85577H16.7143L16.3163 12.7019H13.7245V20H10.602V12.7019H8V9.85577H10.602V7.75962C10.602 6.56731 10.9558 5.64263 11.6633 4.98558C12.3707 4.32853 13.3129 4 14.4898 4C15.4898 4 16.2653 4.03846 16.8163 4.11538V4.11538Z" fill="#777777"/></symbol>
        <symbol id="f_icon_twitter"><path d="M20 7.54405C19.4116 7.79786 18.7713 7.98053 18.1118 8.05168C18.7925 7.64596 19.3097 7.00565 19.5539 6.2442C18.9251 6.61916 18.2137 6.89412 17.4734 7.03641C16.8735 6.39611 16.0216 6 15.0775 6C13.2604 6 11.7991 7.4729 11.7991 9.28037C11.7991 9.53419 11.8298 9.78801 11.8798 10.0322C9.159 9.88992 6.73236 8.59007 5.1191 6.59993C4.83452 7.08833 4.673 7.64596 4.673 8.2555C4.673 9.39382 5.25177 10.3975 6.13436 10.9879C5.59596 10.9667 5.08833 10.8148 4.65184 10.5706V10.611C4.65184 12.205 5.77863 13.526 7.28038 13.8298C7.00541 13.901 6.71121 13.9414 6.41702 13.9414C6.20358 13.9414 6.00168 13.9202 5.79786 13.8914C6.2132 15.1912 7.42267 16.1353 8.86288 16.1661C7.73609 17.0487 6.32472 17.5678 4.79221 17.5678C4.51725 17.5678 4.26343 17.5582 4 17.5275C5.45367 18.46 7.17846 18.9984 9.03593 18.9984C15.066 18.9984 18.3656 14.0029 18.3656 9.66687C18.3656 9.52458 18.3656 9.38229 18.356 9.23999C18.9944 8.77274 19.5539 8.19397 20 7.54405Z" fill="#777777"/></symbol>
        <symbol id="f_icon_youtube"><path fill-rule="evenodd" clip-rule="evenodd" d="M18.247 6.342c.687.188 1.23.74 1.414 1.443.334 1.272.334 3.93.334 3.93s0 2.656-.334 3.928a2.022 2.022 0 0 1-1.414 1.443c-1.248.343-6.252.343-6.252.343s-5.004 0-6.252-.343a2.025 2.025 0 0 1-1.414-1.443c-.334-1.272-.334-3.929-.334-3.929s0-2.657.334-3.93A2.022 2.022 0 0 1 5.743 6.34C6.991 6 11.995 6 11.995 6s5.004 0 6.252.342zm-7.841 7.81l4.143-2.456-4.143-2.42v4.877z" /></symbol>
        <symbol id="f_icon_vk"><path d="M19.9775 7.65928C20.1052 8.01471 19.6887 8.83108 18.728 10.1084C18.5947 10.2861 18.4142 10.5221 18.1865 10.8165C17.7533 11.3718 17.5034 11.7356 17.4368 11.9077C17.3424 12.1354 17.3812 12.3604 17.5534 12.5825C17.6478 12.6991 17.8727 12.9268 18.2282 13.2656H18.2365L18.2448 13.2739L18.2531 13.2822L18.2698 13.2989C19.0529 14.0264 19.5832 14.6401 19.8609 15.1399C19.8776 15.1677 19.8956 15.2024 19.915 15.244C19.9345 15.2857 19.9539 15.3593 19.9734 15.4648C19.9928 15.5703 19.9914 15.6647 19.9692 15.748C19.947 15.8313 19.8776 15.9077 19.7609 15.9771C19.6443 16.0465 19.4805 16.0812 19.2694 16.0812L17.1369 16.1145C17.0036 16.1423 16.8481 16.1284 16.6704 16.0729C16.4927 16.0174 16.3483 15.9563 16.2372 15.8896L16.0706 15.7897C15.904 15.673 15.7096 15.4953 15.4875 15.2565C15.2653 15.0177 15.0751 14.8025 14.9169 14.6109C14.7586 14.4193 14.5892 14.2583 14.4087 14.1278C14.2282 13.9973 14.0713 13.9542 13.938 13.9986C13.9214 14.0042 13.8992 14.0139 13.8714 14.0278C13.8436 14.0417 13.7964 14.082 13.7298 14.1486C13.6631 14.2152 13.6034 14.2972 13.5507 14.3943C13.4979 14.4915 13.4507 14.6359 13.4091 14.8275C13.3674 15.0191 13.3494 15.2343 13.3549 15.4731C13.3549 15.5564 13.3452 15.6328 13.3258 15.7022C13.3063 15.7716 13.2855 15.823 13.2633 15.8563L13.23 15.898C13.13 16.0035 12.9828 16.0646 12.7885 16.0812H11.8305C11.4362 16.1034 11.0308 16.0576 10.6143 15.9438C10.1977 15.8299 9.8326 15.6828 9.51882 15.5023C9.20505 15.3218 8.91904 15.1385 8.6608 14.9525C8.40256 14.7664 8.2068 14.6068 8.07352 14.4735L7.86526 14.2735C7.80972 14.218 7.73336 14.1347 7.63618 14.0236C7.53899 13.9126 7.34045 13.6599 7.04056 13.2656C6.74067 12.8713 6.44633 12.452 6.15755 12.0077C5.86876 11.5634 5.52861 10.9775 5.13709 10.25C4.74556 9.5225 4.38319 8.76722 4.04998 7.98417C4.01666 7.89531 4 7.82034 4 7.75925C4 7.69816 4.00833 7.65373 4.02499 7.62596L4.05831 7.57598C4.14162 7.47046 4.29989 7.41771 4.53314 7.41771L6.81564 7.40104C6.88228 7.41215 6.94615 7.4302 7.00724 7.45519C7.06833 7.48018 7.11276 7.50379 7.14052 7.526L7.18218 7.55099C7.27103 7.61208 7.33767 7.70094 7.3821 7.81756C7.49317 8.09524 7.6209 8.38263 7.7653 8.67975C7.90969 8.97686 8.02354 9.20317 8.10684 9.35867L8.24012 9.60025C8.40118 9.93346 8.55667 10.2222 8.70662 10.4666C8.85657 10.711 8.99124 10.9012 9.11064 11.0372C9.23004 11.1733 9.34528 11.2802 9.45635 11.3579C9.56742 11.4357 9.66183 11.4746 9.73958 11.4746C9.81733 11.4746 9.8923 11.4607 9.9645 11.4329C9.9756 11.4274 9.98949 11.4135 10.0061 11.3913C10.0228 11.369 10.0561 11.308 10.1061 11.208C10.1561 11.108 10.1936 10.9775 10.2186 10.8165C10.2436 10.6554 10.2699 10.4305 10.2977 10.1417C10.3255 9.85293 10.3255 9.50584 10.2977 9.10043C10.2866 8.87829 10.2616 8.67558 10.2227 8.49231C10.1839 8.30905 10.145 8.18132 10.1061 8.10912L10.0561 8.00916C9.91729 7.82034 9.68127 7.70094 9.34805 7.65095C9.27586 7.63985 9.28974 7.5732 9.3897 7.45103C9.48411 7.34551 9.58963 7.26221 9.70626 7.20112C10.0006 7.05673 10.6642 6.99008 11.6972 7.00119C12.1526 7.00674 12.5275 7.04284 12.8218 7.10948C12.9329 7.13725 13.0259 7.17474 13.1009 7.22194C13.1758 7.26915 13.2328 7.33579 13.2716 7.42187C13.3105 7.50795 13.3397 7.59681 13.3591 7.68844C13.3785 7.78007 13.3882 7.90642 13.3882 8.06747C13.3882 8.22852 13.3855 8.38124 13.3799 8.52564C13.3744 8.67003 13.3674 8.86579 13.3591 9.11292C13.3508 9.36006 13.3466 9.58914 13.3466 9.80017C13.3466 9.86126 13.3438 9.97789 13.3383 10.15C13.3327 10.3222 13.3313 10.4555 13.3341 10.5499C13.3369 10.6443 13.3466 10.7568 13.3633 10.8873C13.3799 11.0178 13.4119 11.1261 13.4591 11.2122C13.5063 11.2982 13.5687 11.3663 13.6465 11.4163C13.6909 11.4274 13.7381 11.4385 13.7881 11.4496C13.8381 11.4607 13.9103 11.4301 14.0047 11.3579C14.0991 11.2857 14.2046 11.1899 14.3212 11.0705C14.4379 10.9511 14.5823 10.7651 14.7544 10.5124C14.9266 10.2597 15.1154 9.96123 15.3209 9.61691C15.6541 9.03934 15.9512 8.41457 16.2122 7.74259C16.2344 7.68705 16.2622 7.63846 16.2955 7.59681C16.3288 7.55516 16.3594 7.526 16.3872 7.50934L16.4205 7.48435L16.4621 7.46352L16.5704 7.43853L16.737 7.43437L19.1362 7.41771C19.3527 7.38994 19.5305 7.39688 19.6693 7.43853C19.8081 7.48018 19.8942 7.526 19.9275 7.57598L19.9775 7.65928Z" fill="#777777"/></symbol>
        <symbol id="f_icon_ok_ru"><path fill-rule="evenodd" clip-rule="evenodd" d="M8.67262 8.86875C8.67262 7.00827 10.1808 5.5 12.0414 5.5C13.9019 5.5 15.4101 7.00827 15.4101 8.86875C15.4101 10.7293 13.9019 12.2377 12.0414 12.2377C10.1808 12.2377 8.67262 10.7293 8.67262 8.86875ZM10.6488 8.8688C10.6488 9.63788 11.2723 10.2614 12.0414 10.2614C12.8105 10.2614 13.4339 9.63788 13.4339 8.8688C13.4339 8.09972 12.8105 7.47623 12.0414 7.47623C11.2723 7.47623 10.6488 8.09972 10.6488 8.8688ZM15.4304 13.9705C15.3876 14.0048 14.5795 14.6435 13.2308 14.9182L15.2665 16.9358C15.6245 17.2932 15.625 17.8732 15.2676 18.2312C14.9101 18.5891 14.3303 18.5897 13.9722 18.2322L11.9958 16.3076L10.2007 18.2198C10.021 18.4062 9.78126 18.5 9.54128 18.5C9.31238 18.5 9.08329 18.4148 8.90554 18.2434C8.54137 17.8923 8.53082 17.3124 8.88197 16.9483L10.8142 14.9289C9.42779 14.6606 8.58626 14.0053 8.54292 13.9705C8.14828 13.654 8.08488 13.0775 8.40137 12.6829C8.71782 12.2882 9.29425 12.2248 9.68899 12.5413C9.69733 12.548 10.5775 13.2093 11.9957 13.2102C13.414 13.2093 14.276 12.548 14.2843 12.5413C14.6791 12.2248 15.2555 12.2882 15.5719 12.6829C15.8884 13.0775 15.825 13.654 15.4304 13.9705Z" fill="#777777"/></symbol>
        <symbol id="history"><path d="M4 12a8 8 0 1 1 16.001.001A8 8 0 0 1 4 12z" stroke-width="1.3" stroke-linecap="round" stroke-linejoin="round"/><path d="M14.5 14.5L12 12V8" stroke-width="1.3" stroke-linecap="round" stroke-linejoin="round"/></symbol>
        <symbol id="delete"><path d="M17.85 18.48l.457-9.147h.026a1.6 1.6 0 1 0 0-3.2H15.55l-.23-.921A1.6 1.6 0 0 0 13.768 4H11.19a1.6 1.6 0 0 0-1.547 1.185l-.253.948H6.6a1.6 1.6 0 1 0 0 3.2h.026l.457 9.147A1.6 1.6 0 0 0 8.68 20h7.573a1.6 1.6 0 0 0 1.597-1.52zM10.676 5.461a.533.533 0 0 1 .515-.394h2.576a.533.533 0 0 1 .518.404l.166.662h-3.958l.183-.672zm-4.61 2.272A.533.533 0 0 1 6.6 7.2h11.733a.534.534 0 0 1 0 1.067H6.6a.533.533 0 0 1-.533-.534zm2.08 10.694l-.452-9.094h9.547l-.454 9.094a.534.534 0 0 1-.534.506H8.68a.533.533 0 0 1-.533-.506z"/><path d="M15.16 11.467a.532.532 0 0 0-.56.506l-.213 4.267a.534.534 0 1 0 1.066.053l.214-4.266a.534.534 0 0 0-.507-.56zm-5.387 0a.533.533 0 0 0-.506.56l.213 4.266a.542.542 0 0 0 .56.507.533.533 0 0 0 .507-.56l-.214-4.267a.537.537 0 0 0-.56-.506zm2.694 0a.534.534 0 0 0-.534.533v4.267a.533.533 0 0 0 1.067 0V12a.533.533 0 0 0-.533-.533z"/></symbol>
        <symbol id="stars"><path d="M14.38 7.831a1.79 1.79 0 0 0 1.363 1.03l3.484.53c.74.113 1.037 1.067.496 1.615l-2.527 2.58a1.954 1.954 0 0 0-.523 1.671l.595 3.638c.127.775-.65 1.36-1.308.992l-3.123-1.72a1.713 1.713 0 0 0-1.678 0l-3.123 1.72c-.658.369-1.435-.227-1.308-.992l.595-3.638c.1-.614-.09-1.237-.523-1.672l-2.527-2.58c-.532-.547-.244-1.501.496-1.615l3.484-.529c.586-.085 1.092-.472 1.363-1.03l1.56-3.307a.884.884 0 0 1 1.616 0l1.588 3.307z"/></symbol>
    </defs>

    <use x="0" y="0" style="fill:#fff" xlink:href="#menu"/>
    <use x="24" y="0" style="fill:#000" xlink:href="#menu"/>
    <use x="0" y="24" style="fill:#fff" xlink:href="#search"/>
    <use x="24" y="24" style="fill:#000" xlink:href="#search"/>
    <use x="48" y="24" style="fill:#C5C5C5" xlink:href="#search"/>
    <use x="0" y="48" style="stroke:#8B8B8B" xlink:href="#close"/>
    <use x="24" y="48" style="stroke:#C5C5C5" xlink:href="#close"/>
    <use x="0" y="72" style="fill:#8B8B8B" xlink:href="#icon_home"/>
    <use x="24" y="72" style="fill:#24cd77" xlink:href="#icon_home"/>
    <use x="0" y="96" style="fill:#8B8B8B" xlink:href="#icon_game"/>
    <use x="24" y="96" style="fill:#24cd77" xlink:href="#icon_game"/>
    <use x="48" y="96" style="fill:#C5C5C5" xlink:href="#icon_game"/>
    <use x="72" y="96" style="fill:#00A6ED" xlink:href="#icon_game"/>
    <use x="0" y="120" style="fill:#8B8B8B" xlink:href="#icon_app"/>
    <use x="24" y="120" style="fill:#24cd77" xlink:href="#icon_app"/>
    <use x="0" y="144" style="fill:#8B8B8B" xlink:href="#icon_article"/>
    <use x="24" y="144" style="fill:#24cd77" xlink:href="#icon_article"/>
    <use x="48" y="144" style="fill:#C5C5C5" xlink:href="#icon_article"/>
    <use x="72" y="144" style="fill:#00A6ED" xlink:href="#icon_article"/>
    <use x="0" y="168" style="fill:#8B8B8B" xlink:href="#icon_topics"/>
    <use x="24" y="168" style="fill:#24cd77" xlink:href="#icon_topics"/>
    <use x="0" y="192" style="fill:#8B8B8B" xlink:href="#icon_product"/>
    <use x="24" y="192" style="fill:#24cd77" xlink:href="#icon_product"/>
    <use x="48" y="192" style="fill:#C5C5C5" xlink:href="#icon_product"/>
    <use x="72" y="192" style="fill:#00A6ED" xlink:href="#icon_product"/>
    <use x="0" y="216" style="fill:#8B8B8B" xlink:href="#icon_tv"/>
    <use x="24" y="216" style="fill:#24cd77" xlink:href="#icon_tv"/>
    <use x="0" y="240" style="fill:#8B8B8B" xlink:href="#icon_world"/>
    <use x="24" y="240" style="fill:#24cd77" xlink:href="#icon_world"/>
    <use x="0" y="264px" style="fill:#8B8B8B" xlink:href="#f_icon_facebook"/>
    <use x="0" y="288px" style="fill:#8B8B8B" xlink:href="#f_icon_twitter"/>
    <use x="0" y="312px" style="fill:#8B8B8B" xlink:href="#f_icon_youtube"/>
    <use x="24" y="312px" style="fill:#C5C5C5" xlink:href="#f_icon_youtube"/>
    <use x="48" y="312px" style="fill:#00A6ED" xlink:href="#f_icon_youtube"/>
    <use x="0" y="336px" style="fill:#8B8B8B" xlink:href="#f_icon_vk"/>
    <use x="0" y="360px" style="fill:#8B8B8B" xlink:href="#f_icon_ok_ru"/>
    <use x="0" y="384" style="fill:#8B8B8B" xlink:href="#delete"/>
    <use x="0" y="408" style="fill:none; stroke:#C5C5C5;" xlink:href="#history"/>
    <use x="24" y="408" style="fill:none; stroke:#24CD77;" xlink:href="#history"/>
    <use x="0" y="432" style="fill:rgb(250, 139, 22);" xlink:href="#stars"/>
    <use x="24" y="432" style="fill:#D9D9D9;" xlink:href="#stars"/>
    <use x="48" y="432" style="fill:#FFFFFF;" xlink:href="#stars"/>
</svg>
