<svg width="140" height="90" viewBox="0 0 140 90" fill="none" xmlns="http://www.w3.org/2000/svg">
<g clip-path="url(#clip0_17395_318594)">
<path d="M29.2919 72.9302L48.3019 40.4702L37.5919 22.6602L8.17188 72.9302H29.2919Z" fill="white"/>
<path d="M0.191406 22.6602L10.6914 40.4702H25.7214L36.1414 22.6602H0.191406Z" fill="white"/>
<path fill-rule="evenodd" clip-rule="evenodd" d="M56.7109 41.8914V68.7714H75.6109V63.7814H62.2509V32.3714L56.7109 41.8914V41.8914ZM108.351 30.6014H109.851V26.1914H107.881C103.141 26.1914 98.2609 27.4414 98.2609 36.0314V41.3214H92.9409V45.5114H98.2609V68.7714H103.551V45.5114H109.841V41.3214H103.551V36.2514C103.551 31.0414 106.071 30.6014 108.351 30.6014V30.6014ZM88.0609 31.7914C88.0609 33.7014 86.4809 35.2614 84.6209 35.2614C82.7609 35.2614 81.1309 33.7114 81.1309 31.7914C81.1309 29.8714 82.7109 28.3514 84.6209 28.3514C86.5309 28.3514 88.0609 29.8714 88.0609 31.7914V31.7914ZM87.2309 68.7714H81.9109V41.3314H87.2309V68.7714V68.7714ZM126.561 40.7714C134.021 40.7714 139.421 45.2614 139.451 54.5214L139.371 55.9314H118.111C118.301 62.0014 122.161 64.9414 126.681 64.9414C129.951 64.9414 132.671 63.1714 134.081 60.2014L138.901 61.1414C136.931 66.2414 132.301 69.2914 126.731 69.2914C118.611 69.2914 112.901 64.0214 112.901 55.0414C112.901 46.0614 118.721 40.7614 126.571 40.7614L126.561 40.7714ZM134.071 51.7214C133.601 47.0614 130.611 44.8214 126.581 44.8214C122.551 44.8214 119.241 47.0414 118.351 51.7214H134.071Z" fill="white"/>
<path opacity="0.53" d="M44 88.4995L32 84.4995L77 6.5L86 13L44 88.4995Z" fill="url(#paint0_diamond_17395_318594)"/>
</g>
<defs>
<radialGradient id="paint0_diamond_17395_318594" cx="0" cy="0" r="1" gradientUnits="userSpaceOnUse" gradientTransform="translate(53 47) rotate(31.4296) scale(21.095 66.6389)">
<stop stop-color="white" stop-opacity="0.39"/>
<stop offset="0.739888" stop-color="white" stop-opacity="0"/>
</radialGradient>
<clipPath id="clip0_17395_318594">
<rect width="140" height="90" fill="white"/>
</clipPath>
</defs>
</svg>
